<svg xmlns="http://www.w3.org/2000/svg" viewBox="0 0 64.98 27.75"><defs><style>.cls-1{fill:#fff;}</style></defs><g id="Camada_2" data-name="Camada 2"><g id="Camada_1-2" data-name="Camada 1"><path class="cls-1" d="M31.21,22.36a1.67,1.67,0,0,1-2.13-1.25C28.71,19.39,30.59,17,32,16.73a.83.83,0,0,1,1.09.59C33.32,18.41,31,20,29.55,20.7c0,.11,0,.24.06.35a1.17,1.17,0,0,0,1.5.89c2.09-.46,3.43-3.05,3.43-3.05s.07-.13.16-.15a.16.16,0,0,1,.2.13.39.39,0,0,1,0,.21S33.34,21.89,31.21,22.36Zm-1.62-2.12c1.33-.63,3.22-2,3-2.88a.38.38,0,0,0-.48-.24A4.2,4.2,0,0,0,29.59,20.24Z"/><path class="cls-1" d="M36,14.41a.64.64,0,0,1,.79.52,3.36,3.36,0,0,1-.72,1.92c.26.75,1.1,1.51,1.35,2.66a.58.58,0,0,1,0,.18,4,4,0,0,0,1.89-1.84s.07-.13.14-.14a.16.16,0,0,1,.22.12.42.42,0,0,1-.05.21,4.8,4.8,0,0,1-2.19,2.06,2,2,0,0,1-1.58,1.77,1,1,0,0,1-1.28-.57c-.11-.48.2-.74.86-.92A11.75,11.75,0,0,0,37,19.91a1.19,1.19,0,0,0,0-.32,12,12,0,0,0-1.2-2.35,15.29,15.29,0,0,1-.88,1.84.32.32,0,0,1-.16.13.16.16,0,0,1-.2-.11.39.39,0,0,1,0-.21,8.3,8.3,0,0,0,.94-2.27C35.27,15.68,35.33,14.55,36,14.41Zm1,5.89c-1.12.42-2,.45-2,.87.06.26.36.42.81.33A1.51,1.51,0,0,0,36.93,20.3ZM36.32,15a.17.17,0,0,0-.22-.16c-.37.08-.31.91-.22,1.47A2.39,2.39,0,0,0,36.32,15Z"/><path class="cls-1" d="M40.52,19.94a1,1,0,0,1-1.3-.83,7.16,7.16,0,0,1,1.4-4.22.21.21,0,0,1,.26.15.31.31,0,0,1-.05.22c-.32.63-1.35,2.67-1.11,3.74a.66.66,0,0,0,.85.53c1.1-.24,2.39-2.47,2.39-2.47s.07-.13.14-.15a.18.18,0,0,1,.22.12.39.39,0,0,1,0,.21S41.94,19.63,40.52,19.94Zm1.55-7.76c.06.25-.1.79-.39.85a.27.27,0,0,1-.36-.21c-.07-.31.14-.78.4-.84A.28.28,0,0,1,42.07,12.18Z"/><path class="cls-1" d="M46.61,20c-.67,3.29-2,7.05-4.39,7.58a1.69,1.69,0,0,1-2.15-1.31c-.54-2.46,3-5.93,6-6.59l.12,0c.24-1.13.39-2.19.48-3C46,17.83,45,19.15,44,19.36a1,1,0,0,1-1.19-.84c-.36-1.66,1.67-4.57,3.58-5,1-.22,1.34.22,1.43.61a.65.65,0,0,1-.2.7.13.13,0,0,1-.15-.1,3.17,3.17,0,0,0,0-.45c-.06-.23-.31-.51-.86-.39-1.81.4-3.6,3.06-3.28,4.54A.56.56,0,0,0,44,19c.61-.13,1.64-1.34,2.33-2.51.41-.69.48-1.15.59-1.17s.26,0,.28.13a8,8,0,0,1-.06,1.21c-.09.83-.23,1.86-.44,2.95a1.89,1.89,0,0,1,1.89.8.24.24,0,0,1-.14.25s-.1,0-.15-.1A1.75,1.75,0,0,0,46.61,20Zm-.48.09c-2.76.62-6.07,3.87-5.58,6.08a1.27,1.27,0,0,0,1.57,1C44.24,26.7,45.46,23.21,46.13,20.07Z"/><path class="cls-1" d="M54,16.92a.9.9,0,0,1-1.17-.69c-.28-1.27.44-2.55.31-3.15a.36.36,0,0,0-.46-.27c-1,.21-2.4,2.47-3.84,5.16-.09.19-.15.26-.26.29a.28.28,0,0,1-.32-.22,6.18,6.18,0,0,1,.34-1.39c.39-1.36,1.51-4.28,1.79-4.34a.29.29,0,0,1,.3.16c0,.08,0,.12-.11.3A29.09,29.09,0,0,0,49,16.92c1-1.93,2.48-4.31,3.71-4.58a.8.8,0,0,1,1,.62c.17.74-.55,2-.3,3.1a.54.54,0,0,0,.7.4c1.29-.28,2.38-2.35,2.38-2.35s.07-.13.14-.15a.19.19,0,0,1,.23.13.47.47,0,0,1-.06.2S55.52,16.59,54,16.92Z"/><path class="cls-1" d="M18.92,8.64c-5.81,1.61-10.21,6.25-9.38,9.23a2.37,2.37,0,0,0,3.11,1.66,5.12,5.12,0,0,0,2.22-1.46.16.16,0,0,1,.17.11A3.79,3.79,0,0,1,12.6,20,2.76,2.76,0,0,1,9,18c-.94-3.41,3.56-8.14,9.78-9.86,5.59-1.55,9.18.33,10.28,4.3,1.63,5.91-3,13.63-8.42,15.12-1.79.5-3.11-.27-3.39-1.29-.56-2,2.13-4.2,5.52-5.13.23-.07.35,0,.38.07s0,.21-.32.29c-3,.83-5.46,3-5,4.57.24.84,1.23,1.38,2.71,1,5-1.37,9.5-8.86,8-14.44C27.51,9.07,24.22,7.17,18.92,8.64Zm2.13,1.8c0,.12,0,.22-.21.41-1.75,1.59-5.69,9.33-4.7,12.93,0,.12,0,.19-.09.22a.44.44,0,0,1-.5-.37c-1.05-3.8,3.94-13,5.17-13.37A.27.27,0,0,1,21.05,10.44Z"/><path class="cls-1" d="M0,.14H.88L5.08,7.3,9.26.14h.83v10.5H9.18V1.91L5.31,8.48H4.77L.91,1.91v8.73H0Z"/><path class="cls-1" d="M23.16,7h-1V.14H28.1V.92H23.16V4.84h4.56v.78H23.16Z"/><path class="cls-1" d="M39.46.45h5.92v.78h-5V5.14H45v.78H40.43v4.25h5V11H39.46Z"/><path class="cls-1" d="M56.28,5.41C56.28,2.34,58.32,0,61,0a4,4,0,0,1,3.94,2.67l-.83.45A3.19,3.19,0,0,0,61,.84c-2.16,0-3.67,1.91-3.67,4.57,0,2.5,1.3,4.53,4,4.53a4.66,4.66,0,0,0,2-.41A1.27,1.27,0,0,0,64,8.18V5.33h1V9.44a5.24,5.24,0,0,1-3.69,1.35C58.08,10.79,56.28,8.31,56.28,5.41Z"/></g></g></svg>