<svg xmlns="http://www.w3.org/2000/svg" viewBox="0 0 107.31 98.81"><defs><style>.cls-1{fill:#fcc89b;}</style></defs><g id="Camada_2" data-name="Camada 2"><g id="Camada_1-2" data-name="Camada 1"><path class="cls-1" d="M42.36,39.66a3.9,3.9,0,1,1,3.9,3.83A3.79,3.79,0,0,1,42.36,39.66Z"/><path class="cls-1" d="M59.89,39.66a3.9,3.9,0,1,1,3.9,3.83A3.79,3.79,0,0,1,59.89,39.66Z"/><path class="cls-1" d="M77.42,39.66a3.9,3.9,0,1,1,3.9,3.83A3.79,3.79,0,0,1,77.42,39.66Z"/><path class="cls-1" d="M79.15,87.41a2.94,2.94,0,0,1-1.61-.48C67.26,80.31,60.16,75.11,55.93,71.1H52.46a29.66,29.66,0,0,1,0-59.31H74.7a29.64,29.64,0,0,1,7.42,58.34V84.44A3,3,0,0,1,80.57,87,2.87,2.87,0,0,1,79.15,87.41ZM52.46,17.72a23.73,23.73,0,0,0,0,47.45h4.67a3,3,0,0,1,2.11.87C62.41,69.23,68.1,73.57,76.18,79V67.73a3,3,0,0,1,2.48-2.92,23.71,23.71,0,0,0-4-47.09Z"/><path class="cls-1" d="M25.21,98.81a3,3,0,0,1-3-3V81.54A29.64,29.64,0,0,1,11.05,29.75a3,3,0,0,1,3.73,4.62A23.7,23.7,0,0,0,25.7,76.21a3,3,0,0,1,2.47,2.92V90.36C36.26,85,42,80.64,45.12,77.44a3,3,0,0,1,2.1-.87H51.9a3,3,0,0,1,0,5.93H48.43c-4.24,4-11.33,9.21-21.62,15.84A3,3,0,0,1,25.21,98.81Z"/><path class="cls-1" d="M27.31,18.6a2.06,2.06,0,1,0-2.91,0A2.06,2.06,0,0,0,27.31,18.6Z"/><path class="cls-1" d="M102.56,68.65a2.38,2.38,0,1,0,2.37-2.38A2.37,2.37,0,0,0,102.56,68.65Z"/><path class="cls-1" d="M101.82,77.93c-.5-.5-1.7-.18-3.06.71a1.19,1.19,0,0,1-1.33,0c-1.36-.89-2.56-1.21-3.07-.71s-.18,1.71.71,3.07a1.19,1.19,0,0,1,0,1.33c-.89,1.36-1.21,2.56-.71,3.06s1.71.19,3.07-.7a1.19,1.19,0,0,1,1.33,0c1.36.89,2.56,1.21,3.06.7s.19-1.7-.7-3.06a1.19,1.19,0,0,1,0-1.33C102,79.64,102.33,78.44,101.82,77.93Z"/><path class="cls-1" d="M92.82,7.16a3.59,3.59,0,1,0-3.13-4A3.59,3.59,0,0,0,92.82,7.16Z"/></g></g></svg>