<svg xmlns="http://www.w3.org/2000/svg" viewBox="0 0 14.93 34.59"><defs><style>.cls-1{fill:#8a785d;}</style></defs><g id="Camada_2" data-name="Camada 2"><g id="Camada_1-2" data-name="Camada 1"><path class="cls-1" d="M13.91,1.21A3.88,3.88,0,0,0,11.48.07a4.35,4.35,0,0,0-4,2A4.53,4.53,0,0,0,6.55,1,4.23,4.23,0,0,0,3.24,0a3.91,3.91,0,0,0-2.81,2A4,4,0,0,0,0,3.84,4.86,4.86,0,0,0,.33,5.6a8,8,0,0,0,2,2.85A14.45,14.45,0,0,0,7.4,11.68l.15,0a.32.32,0,0,0,.14,0,12.34,12.34,0,0,0,5.43-3.63,7.23,7.23,0,0,0,1.72-3.22,4.55,4.55,0,0,0,0-1.91A3.73,3.73,0,0,0,13.91,1.21Z"/><path class="cls-1" d="M7.35,34.59a.62.62,0,0,1-.44-.18L.47,28a.61.61,0,0,1,0-.88.63.63,0,0,1,.88,0l6,6,6-6a.62.62,0,0,1,.88.88L7.79,34.41A.62.62,0,0,1,7.35,34.59Z"/><path class="cls-1" d="M7.35,27.94a.62.62,0,0,1-.44-.18L.47,21.32a.63.63,0,0,1,.88-.89l6,6,6-6a.63.63,0,0,1,.88,0,.64.64,0,0,1,0,.89L7.79,27.76A.62.62,0,0,1,7.35,27.94Z"/></g></g></svg>