<svg xmlns="http://www.w3.org/2000/svg" viewBox="0 0 145.17 61.98"><defs><style>.cls-1{fill:#0f0e0e;}</style></defs><g id="Camada_2" data-name="Camada 2"><g id="Camada_1-2" data-name="Camada 1"><path class="cls-1" d="M69.71,50A3.71,3.71,0,0,1,65,47.15c-.84-3.82,3.36-9.09,6.48-9.78a1.88,1.88,0,0,1,2.45,1.32c.53,2.43-4.61,6-7.88,7.54a4.07,4.07,0,0,0,.13.79,2.6,2.6,0,0,0,3.36,2c4.65-1,7.65-6.8,7.65-6.8s.16-.29.36-.34a.35.35,0,0,1,.45.29.94.94,0,0,1-.11.46S74.49,48.91,69.71,50ZM66.1,45.22c3-1.42,7.2-4.54,6.78-6.43a.84.84,0,0,0-1.07-.55C69.43,38.76,66.6,42.18,66.1,45.22Z"/><path class="cls-1" d="M80.37,32.2a1.4,1.4,0,0,1,1.76,1.16c.23,1-.72,3-1.61,4.28.59,1.68,2.47,3.38,3,5.93a1.09,1.09,0,0,1,0,.42,9,9,0,0,0,4.23-4.11s.16-.29.32-.33a.39.39,0,0,1,.49.28.89.89,0,0,1-.12.46,10.47,10.47,0,0,1-4.9,4.6,4.48,4.48,0,0,1-3.53,4,2.31,2.31,0,0,1-2.86-1.27c-.24-1.07.46-1.65,1.92-2a26.12,26.12,0,0,0,3.43-1.06,3.13,3.13,0,0,0-.07-.72c-.47-2.17-2-3.53-2.69-5.23a32.67,32.67,0,0,1-2,4.1.7.7,0,0,1-.37.29.34.34,0,0,1-.44-.25.87.87,0,0,1,.12-.45,18.44,18.44,0,0,0,2.08-5.07C78.79,35,78.93,32.51,80.37,32.2Zm2.14,13.15c-2.51.94-4.57,1-4.36,1.94.12.58.81,1,1.79.73A3.39,3.39,0,0,0,82.51,45.35ZM81.14,33.58a.4.4,0,0,0-.5-.36c-.83.17-.68,2-.49,3.29A5.49,5.49,0,0,0,81.14,33.58Z"/><path class="cls-1" d="M90.52,44.55a2.3,2.3,0,0,1-2.9-1.87c-.61-2.79,2.45-9.28,3.11-9.43a.48.48,0,0,1,.59.35.78.78,0,0,1-.1.5c-.73,1.41-3,6-2.49,8.34a1.46,1.46,0,0,0,1.89,1.18C93.09,43.08,96,38.1,96,38.1s.15-.29.32-.33a.39.39,0,0,1,.49.28.89.89,0,0,1-.12.46S93.69,43.86,90.52,44.55ZM94,27.2c.12.58-.22,1.77-.88,1.91a.6.6,0,0,1-.79-.47c-.15-.7.31-1.75.88-1.87A.6.6,0,0,1,94,27.2Z"/><path class="cls-1" d="M104.12,44.64c-1.49,7.35-4.41,15.75-9.8,16.92a3.79,3.79,0,0,1-4.81-2.91c-1.2-5.51,6.67-13.27,13.42-14.74l.29-.06c.52-2.53.87-4.89,1.07-6.75-1.65,2.74-3.85,5.67-6.07,6.16a2.19,2.19,0,0,1-2.65-1.88c-.81-3.71,3.72-10.21,8-11.14,2.18-.48,3,.51,3.18,1.37s-.18,1.51-.43,1.56A.28.28,0,0,1,106,33a4.49,4.49,0,0,0,0-1c-.12-.53-.68-1.14-1.92-.87-4,.88-8,6.84-7.31,10.13a1.24,1.24,0,0,0,1.54,1.13c1.35-.3,3.65-3,5.19-5.62.92-1.53,1.08-2.56,1.33-2.61s.58.08.62.29a16.68,16.68,0,0,1-.14,2.7c-.2,1.86-.51,4.17-1,6.6,2.77-.13,4.12,1.34,4.22,1.79a.53.53,0,0,1-.31.54c-.12,0-.23-.08-.35-.22A3.88,3.88,0,0,0,104.12,44.64Zm-1.08.19c-6.16,1.39-13.54,8.65-12.46,13.59a2.83,2.83,0,0,0,3.51,2.25C98.82,59.64,101.56,51.84,103,44.83Z"/><path class="cls-1" d="M120.65,37.8A2,2,0,0,1,118,36.26c-.62-2.84,1-5.69.7-7a.82.82,0,0,0-1-.59c-2.14.47-5.35,5.52-8.56,11.52-.21.43-.35.6-.6.65a.62.62,0,0,1-.71-.49,13.36,13.36,0,0,1,.75-3.09c.89-3,3.39-9.58,4-9.72a.71.71,0,0,1,.69.37c0,.17,0,.27-.25.66a66.15,66.15,0,0,0-3.58,9.27c2.34-4.3,5.53-9.61,8.29-10.21a1.78,1.78,0,0,1,2.2,1.37c.4,1.85-1.66,5.1-.39,7.82,3.4.82,6.59-5.25,6.59-5.25s.15-.29.32-.33a.39.39,0,0,1,.49.28.91.91,0,0,1-.11.46S124,37.07,120.65,37.8Z"/><path class="cls-1" d="M42.27,19.3c-13,3.59-22.81,14-21,20.61.95,3.44,4,4.52,7,3.71a11.47,11.47,0,0,0,5-3.26.37.37,0,0,1,.37.25c.08.32-1.87,3.08-5.45,4.07-2.84.79-6.8,0-8-4.4-2.1-7.61,8-18.19,21.86-22,12.48-3.45,20.5.75,23,9.61,3.65,13.21-6.74,30.45-18.81,33.79-4,1.1-6.93-.6-7.56-2.9-1.24-4.49,4.77-9.36,12.34-11.46.5-.14.77-.06.83.17s-.07.46-.71.64C44.28,50,38.83,54.72,39.82,58.3c.52,1.88,2.73,3.09,6,2.18C57,57.41,67.1,40.68,63.65,28.2,61.45,20.27,54.11,16,42.27,19.3Zm4.76,4c.08.28,0,.5-.48.93-3.91,3.55-12.71,20.85-10.49,28.87.08.28,0,.44-.2.5a1,1,0,0,1-1.12-.82c-2.35-8.49,8.79-29.1,11.55-29.86A.61.61,0,0,1,47,23.31Z"/><path class="cls-1" d="M0,.32H2l9.38,16,9.35-16h1.85V23.78h-2V4.27L11.87,19H10.66L2,4.27V23.78H0Z"/><path class="cls-1" d="M51.74,15.66H49.56V.32H62.78V2.06H51.73v8.75h10.2v1.74H51.73Z"/><path class="cls-1" d="M88.16,1h13.22V2.74h-11v8.75h10.2v1.74H90.33v9.49h11v1.74H88.16Z"/><path class="cls-1" d="M125.72,12.09C125.72,5.22,130.27,0,136.28,0a8.93,8.93,0,0,1,8.78,6l-1.85,1c-1.31-3.49-3.84-5.09-7-5.09-4.84,0-8.21,4.27-8.21,10.21,0,5.58,2.91,10.13,8.88,10.13a10.3,10.3,0,0,0,4.41-.93,2.84,2.84,0,0,0,1.71-3V11.91h2.17v9.17c-1.67,1.85-5,3-8.25,3C129.74,24.1,125.72,18.55,125.72,12.09Z"/></g></g></svg>