<svg xmlns="http://www.w3.org/2000/svg" viewBox="0 0 67.42 113.65"><defs><style>.cls-1{fill:#fcc89b;}</style></defs><g id="Camada_2" data-name="Camada 2"><g id="Camada_1-2" data-name="Camada 1"><path class="cls-1" d="M20.32,91.55a7.8,7.8,0,0,0,.86,9.11,7.86,7.86,0,0,0,5.95,13h0l13.4,0a7.85,7.85,0,0,0,5.92-13,7.84,7.84,0,0,0,1.91-5.14,7.73,7.73,0,0,0-1.1-4L63.58,61.57a31.62,31.62,0,0,0,3.25-21.18A31.23,31.23,0,0,0,63.89,32,31.89,31.89,0,0,0,50.05,18.28,37.07,37.07,0,0,0,27.8,15.13a32.79,32.79,0,0,0-17.72,8.24A31.52,31.52,0,0,0,3.9,61.69ZM40.53,56a2.45,2.45,0,0,1,.72-1.75A2.49,2.49,0,0,1,43,53.53h0A2.46,2.46,0,0,1,45.47,56v.81A2.48,2.48,0,0,1,43,59.28H40.54Zm-8.12,8.76h2.67l.05,22.87H32.45ZM42.3,93.92a2.32,2.32,0,0,1,.61,1.56,2.38,2.38,0,0,1-.71,1.7,2.34,2.34,0,0,1-1.69.71l-13.4,0h0a2.42,2.42,0,0,1-2.41-2.4A2.37,2.37,0,0,1,25.3,94Zm-1.77,14.24-13.4,0h0a2.34,2.34,0,0,1-1.69-.71,2.41,2.41,0,0,1-.72-1.69,2.42,2.42,0,0,1,2.4-2.41l13.4,0h0a2.42,2.42,0,0,1,2.41,2.4A2.41,2.41,0,0,1,40.53,108.16ZM5.93,41.55A26.17,26.17,0,0,1,31.52,20.36h4.33A26.12,26.12,0,0,1,58.78,59L43,88a7.49,7.49,0,0,0-2.36-.39l0-22.88H43a7.94,7.94,0,0,0,7.92-7.95V56A8,8,0,0,0,43,48.06h0a7.93,7.93,0,0,0-5.61,2.34A7.84,7.84,0,0,0,35.07,56V59.3H32.4V56a7.94,7.94,0,0,0-7.93-7.92h0a8,8,0,0,0-7.92,7.95v.81a7.92,7.92,0,0,0,7.93,7.92H27l0,22.88a8.4,8.4,0,0,0-2.36.4l-15.94-29A26.14,26.14,0,0,1,5.93,41.55Zm21,17.76H24.46A2.46,2.46,0,0,1,22,56.85V56a2.48,2.48,0,0,1,2.46-2.48h0A2.48,2.48,0,0,1,26.93,56Z"/><path class="cls-1" d="M6.34,18.6a2.06,2.06,0,1,0-2.92,0A2.06,2.06,0,0,0,6.34,18.6Z"/><path class="cls-1" d="M52.44,95.25a2.38,2.38,0,1,0,2.37-2.37A2.37,2.37,0,0,0,52.44,95.25Z"/><path class="cls-1" d="M66.11,79.54c-.51-.51-1.71-.19-3.07.7a1.18,1.18,0,0,1-1.32,0c-1.36-.89-2.56-1.21-3.07-.7s-.19,1.7.71,3.06a1.23,1.23,0,0,1,0,1.33c-.9,1.36-1.21,2.56-.71,3.06s1.71.19,3.07-.7a1.18,1.18,0,0,1,1.32,0c1.36.89,2.56,1.21,3.07.7s.19-1.7-.71-3.06a1.23,1.23,0,0,1,0-1.33C66.3,81.24,66.61,80,66.11,79.54Z"/><path class="cls-1" d="M13.56,7.16a3.59,3.59,0,1,0-3.13-4A3.59,3.59,0,0,0,13.56,7.16Z"/></g></g></svg>