<svg xmlns="http://www.w3.org/2000/svg" viewBox="0 0 115.96 97.6"><defs><style>.cls-1{fill:#fcc89b;}</style></defs><g id="Camada_2" data-name="Camada 2"><g id="Camada_1-2" data-name="Camada 1"><path class="cls-1" d="M94.33,91.45a7.34,7.34,0,0,0,7.33-7.33V77.25a2.7,2.7,0,0,0-5.4,0v6.87A1.93,1.93,0,0,1,94.33,86h-9a2.71,2.71,0,0,0,0,5.41Z"/><path class="cls-1" d="M9.8,27.68V84.12a7.34,7.34,0,0,0,7.33,7.33h38.6a2.71,2.71,0,0,0,0-5.41H17.13a1.93,1.93,0,0,1-1.93-1.92V27.68a1.93,1.93,0,0,1,1.93-1.92h77.2a1.93,1.93,0,0,1,1.93,1.92V44.46a2.7,2.7,0,0,0,5.4,0V27.68a7.34,7.34,0,0,0-7.33-7.33H17.13A7.34,7.34,0,0,0,9.8,27.68Z"/><path class="cls-1" d="M107.06,66.41v7.11a1.93,1.93,0,0,1-1.92,1.93,2.7,2.7,0,1,0,0,5.4,7.34,7.34,0,0,0,7.33-7.33V66.41a2.71,2.71,0,1,0-5.41,0Z"/><path class="cls-1" d="M23.31,19.79a2.7,2.7,0,0,0,2.7-2.7,1.93,1.93,0,0,1,1.93-1.93h77.2a1.93,1.93,0,0,1,1.92,1.93V38.64a2.71,2.71,0,0,0,5.41,0V17.09a7.34,7.34,0,0,0-7.33-7.33H27.94a7.33,7.33,0,0,0-7.33,7.33A2.7,2.7,0,0,0,23.31,19.79Z"/><path class="cls-1" d="M22.46,33.31a2.63,2.63,0,1,0-2.63-2.63A2.62,2.62,0,0,0,22.46,33.31Z"/><path class="cls-1" d="M33.45,30.79a2.62,2.62,0,1,0-2.62,2.62A2.62,2.62,0,0,0,33.45,30.79Z"/><circle class="cls-1" cx="39.2" cy="30.9" r="2.62"/><path class="cls-1" d="M18.14,37.36a2.1,2.1,0,0,0,2.09,2.09h71a2.1,2.1,0,1,0,0-4.19h-71A2.1,2.1,0,0,0,18.14,37.36Z"/><path class="cls-1" d="M116,50.12a6.9,6.9,0,0,0-11.79-4.88L65.59,83.81a2.14,2.14,0,0,0-.51.82l-3.4,10.21a2.1,2.1,0,0,0,2,2.76,2.12,2.12,0,0,0,.66-.11l10.21-3.4a2.06,2.06,0,0,0,.82-.51L113.94,55A6.87,6.87,0,0,0,116,50.12Zm-10.81,3.74a2.1,2.1,0,0,0-3.58,1.48,2.06,2.06,0,0,0,.62,1.48l2,2L72.74,90.27,67,92.19l1.92-5.76L107.13,48.2a2.7,2.7,0,0,1,1.92-.8h0A2.72,2.72,0,0,1,111,52l-3.82,3.82Z"/><path class="cls-1" d="M89.4,51.45a2.09,2.09,0,0,0-2.1-2.09H75.87a2.1,2.1,0,1,0,0,4.19H87.3A2.1,2.1,0,0,0,89.4,51.45Z"/><path class="cls-1" d="M72,51.45a2.09,2.09,0,0,0-2.09-2.09H52.08a2.1,2.1,0,1,0,0,4.19H69.93A2.1,2.1,0,0,0,72,51.45Z"/><path class="cls-1" d="M42.4,49.36a2.1,2.1,0,0,0,0,4.19h3a2.1,2.1,0,1,0,0-4.19Z"/><path class="cls-1" d="M23.31,49.36a2.1,2.1,0,1,0,0,4.19h13a2.1,2.1,0,0,0,0-4.19Z"/><path class="cls-1" d="M65.31,64.56h9.91a2.1,2.1,0,1,0,0-4.19H65.31a2.1,2.1,0,1,0,0,4.19Z"/><path class="cls-1" d="M61.74,62.47a2.1,2.1,0,0,0-2.09-2.1H23.31a2.1,2.1,0,1,0,0,4.19H59.65A2.1,2.1,0,0,0,61.74,62.47Z"/><path class="cls-1" d="M23.31,71.39a2.1,2.1,0,1,0,0,4.19H43a2.1,2.1,0,1,0,0-4.19Z"/><path class="cls-1" d="M7,7.73c.21,1.61.75,2.73,1.46,2.78s1.41-1,1.86-2.53a1.19,1.19,0,0,1,1-.87c1.61-.22,2.73-.76,2.78-1.47s-1-1.41-2.53-1.86a1.19,1.19,0,0,1-.87-1C10.47,1.17,9.93.05,9.22,0S7.81,1,7.36,2.54a1.22,1.22,0,0,1-1,.87c-1.61.21-2.73.75-2.78,1.46s1,1.41,2.54,1.86A1.22,1.22,0,0,1,7,7.73Z"/><path class="cls-1" d="M113.59,89.53a1,1,0,0,1-.74-.85c-.18-1.36-.64-2.31-1.24-2.35s-1.19.82-1.57,2.14a1,1,0,0,1-.85.74c-1.36.18-2.3.64-2.34,1.24s.82,1.19,2.14,1.57a1,1,0,0,1,.73.85c.18,1.36.64,2.3,1.24,2.34s1.2-.82,1.57-2.14a1,1,0,0,1,.85-.73c1.36-.18,2.31-.64,2.35-1.24S114.91,89.9,113.59,89.53Z"/><path class="cls-1" d="M112.56,5.74A1.69,1.69,0,0,0,113,2.39a1.69,1.69,0,0,0-.41,3.35Z"/><path class="cls-1" d="M1.48,10.28a1.32,1.32,0,1,0,1.15,1.47A1.32,1.32,0,0,0,1.48,10.28Z"/><path class="cls-1" d="M9.06,16.37a1.48,1.48,0,0,0-1.29-1.65,1.48,1.48,0,0,0-.36,2.94A1.48,1.48,0,0,0,9.06,16.37Z"/></g></g></svg>